# xmcd
#
# Track frame offsets:
# 150
# 20077
# 38743
# 54235
# 76061
# 93806
# 107962
# 128025
# 145476
# 164614
# 179067
# 198994
# 214521
# 236170
# 253803
# 270006
# 284616
# 300408
# 317775
# 332052
#
# Disc length: 4655 seconds
#
# Revision: 1
# Processed by: cddbd v1.4PL0 Copyright (c) Steve Scherf et al.
# Submitted via: CedeCatalogueitor 2.5 http://usuarios.lycos.es/kakasboy
#
DISCID=1e122d14
DTITLE=Judds, The - Wynonna And Naomi
DYEAR=1900
DGENRE=
TTITLE0=Young Love (Strong Love)
TTITLE1=One Man Woman
TTITLE2=Daddy Hands
TTITLE3=Born To Be Blue
TTITLE4=One Hundred And Two
TTITLE5=Testify To Love
TTITLE6=She Is His Only Need
TTITLE7=Love Can Build A Bridge
TTITLE8=Grampa (Tell Me Bout The Good Old Days)
TTITLE9=Cadillac Red
TTITLE10=River Of Time
TTITLE11=Beautiful Star Of Bethlehem
TTITLE12=My Strongest Weakness
TTITLE13=I Saw The Light In Your Window Tonight
TTITLE14=Guardian Angels
TTITLE15=Mama He's Crazy
TTITLE16=What Child Is This
TTITLE17=The Sweetest Kiss Is A Mother's Smile
TTITLE18=Endless Sleep
TTITLE19=Stuck In Love
EXTD=
EXTT0=
EXTT1=
EXTT2=
EXTT3=
EXTT4=
EXTT5=
EXTT6=
EXTT7=
EXTT8=
EXTT9=
EXTT10=
EXTT11=
EXTT12=
EXTT13=
EXTT14=
EXTT15=
EXTT16=
EXTT17=
EXTT18=
EXTT19=
PLAYORDER=
